<svg width="29" height="28" viewBox="0 0 29 28" fill="none" xmlns="http://www.w3.org/2000/svg">
<path d="M15.1655 6.30253C15.1655 5.43052 15.3381 4.61158 15.6827 3.84444C16.0273 3.07792 16.4979 2.41065 17.0933 1.84326C17.6887 1.27586 18.3885 0.827062 19.1931 0.496237C19.9977 0.165412 20.8595 0 21.779 0C22.688 0 23.5423 0.165412 24.3413 0.496237C25.1404 0.827062 25.8382 1.27586 26.4337 1.84326C27.0291 2.41065 27.4997 3.07792 27.8443 3.84444C28.1888 4.61158 28.3614 5.43052 28.3614 6.30253C28.3614 7.17453 28.1888 7.99348 27.8443 8.76062C27.4997 9.52714 27.0291 10.1944 26.4337 10.7618C25.8382 11.3292 25.141 11.778 24.3413 12.1088C23.5423 12.4396 22.688 12.6051 21.779 12.6051C20.8595 12.6051 19.9977 12.4396 19.1931 12.1088C18.3885 11.778 17.6887 11.3292 17.0933 10.7618C16.4979 10.1944 16.0279 9.52776 15.6827 8.76062C15.3381 7.99348 15.1655 7.17391 15.1655 6.30253ZM17.7198 6.30253C17.7198 6.8281 17.8241 7.32122 18.0333 7.78375C18.2419 8.24628 18.5319 8.65014 18.9031 8.99719C19.2738 9.34362 19.7047 9.61952 20.1958 9.82425C20.6869 10.029 21.2146 10.1314 21.779 10.1314C22.3328 10.1314 22.855 10.029 23.3461 9.82425C23.8372 9.61952 24.2656 9.34362 24.6313 8.99719C24.997 8.65076 25.2869 8.24628 25.5011 7.78375C25.7153 7.32184 25.8227 6.8281 25.8227 6.30253C25.8227 5.78819 25.7153 5.29695 25.5011 4.82942C25.2869 4.3619 24.997 3.95492 24.6313 3.60849C24.2656 3.26206 23.8372 2.98616 23.3461 2.78143C22.855 2.57669 22.3328 2.47432 21.779 2.47432C21.2146 2.47432 20.6869 2.57669 20.1958 2.78143C19.7047 2.98616 19.2738 3.26206 18.9031 3.60849C18.5319 3.95492 18.2419 4.36252 18.0333 4.82942C17.8241 5.29632 17.7198 5.78756 17.7198 6.30253Z" fill="#E5E5E5"/>
<path d="M0 21.4682C0 20.5962 0.172601 19.7772 0.517183 19.0101C0.861764 18.2436 1.33238 17.5763 1.92779 17.0089C2.52321 16.4415 3.22292 15.9927 4.02757 15.6619C4.83221 15.3311 5.69398 15.1656 6.61348 15.1656C7.52243 15.1656 8.37674 15.3311 9.1758 15.6619C9.97486 15.9927 10.6727 16.4415 11.2681 17.0089C11.8635 17.5763 12.3342 18.2436 12.6787 19.0101C13.0233 19.7772 13.1959 20.5962 13.1959 21.4682C13.1959 22.3402 13.0233 23.1591 12.6787 23.9263C12.3342 24.6928 11.8635 25.3601 11.2681 25.9274C10.6727 26.4948 9.97548 26.9436 9.1758 27.2745C8.37674 27.6053 7.52243 27.7707 6.61348 27.7707C5.69398 27.7707 4.83221 27.6053 4.02757 27.2745C3.22292 26.9436 2.52321 26.4948 1.92779 25.9274C1.33238 25.3601 0.862385 24.6934 0.517183 23.9263C0.172601 23.1591 0 22.3396 0 21.4682ZM2.55425 21.4682C2.55425 21.9938 2.65855 22.4869 2.86779 22.9494C3.0764 23.4119 3.36634 23.8158 3.73762 24.1628C4.10828 24.5093 4.53916 24.7852 5.03027 24.9899C5.52138 25.1946 6.04911 25.297 6.61348 25.297C7.16729 25.297 7.68944 25.1946 8.18055 24.9899C8.67166 24.7852 9.10006 24.5093 9.46575 24.1628C9.83144 23.8164 10.1214 23.4119 10.3356 22.9494C10.5498 22.4875 10.6572 21.9938 10.6572 21.4682C10.6572 20.9538 10.5498 20.4626 10.3356 19.9951C10.1214 19.5275 9.83144 19.1206 9.46575 18.7741C9.10006 18.4277 8.67166 18.1518 8.18055 17.9471C7.68944 17.7423 7.16729 17.64 6.61348 17.64C6.04911 17.64 5.52138 17.7423 5.03027 17.9471C4.53916 18.1518 4.10828 18.4277 3.73762 18.7741C3.36634 19.1206 3.0764 19.5282 2.86779 19.9951C2.65855 20.462 2.55425 20.9532 2.55425 21.4682Z" fill="#E5E5E5"/>
<path d="M4.09704 3.60519C4.46426 3.25878 4.89115 2.98289 5.37771 2.77817C5.82366 2.59029 6.30038 2.49043 6.80662 2.4742L12.8015 2.4742V0.000624166L6.81339 0.000624166V0C6.80908 0 6.80477 0.000624166 6.79985 0.000624166L6.79678 0.000624166C5.94238 0.0174767 5.13781 0.180384 4.3843 0.493092C3.58711 0.8239 2.89387 1.27268 2.30398 1.84004C1.71408 2.40741 1.24782 3.07465 0.906434 3.84112C0.565045 4.60823 0.394043 5.42713 0.394043 6.29909C0.394043 7.17105 0.565045 7.98996 0.906434 8.75706C1.24782 9.52354 1.71408 10.1908 2.30398 10.7581C2.89387 11.3255 3.58711 11.7743 4.3843 12.1051C4.99572 12.3591 5.64098 12.5127 6.31945 12.5713C6.3459 12.5738 6.37419 12.5757 6.40187 12.5782C6.45047 12.582 6.49906 12.5857 6.54827 12.5882C6.86629 12.6057 7.23166 12.6051 7.53369 12.6051H12.8021V6.30284H10.2248V10.1315L6.79924 10.1259C6.29423 10.1096 5.82305 10.0079 5.37832 9.82064C4.89177 9.61592 4.46488 9.34004 4.09765 8.99362C3.72981 8.64721 3.44255 8.24275 3.23588 7.78024C3.02858 7.31836 2.92524 6.82464 2.92524 6.29909C2.92524 5.78478 3.02858 5.29356 3.23588 4.82606C3.44255 4.35856 3.72981 3.9516 4.09704 3.60519Z" fill="#E5E5E5"/>
<path d="M28.164 21.6738V21.6706C28.1472 20.8021 27.9842 19.9841 27.6715 19.2192C27.3407 18.4094 26.8919 17.7052 26.3246 17.1059C25.7572 16.5066 25.09 16.0336 24.3235 15.6862C23.5564 15.3394 22.7369 15.1656 21.8649 15.1656C20.9929 15.1656 20.174 15.3394 19.4076 15.6862C18.9132 15.9099 18.4613 16.1867 18.0506 16.5148V15.1656H15.5596V27.7707H18.05H18.0537V25.1525H18.05V21.4701C18.0837 21.0326 18.1811 20.6208 18.344 20.229C18.5487 19.7348 18.8246 19.3011 19.171 18.928C19.5174 18.5544 19.9219 18.2625 20.3844 18.0526C20.8463 17.842 21.34 17.737 21.8655 17.737C22.3798 17.737 22.8711 17.842 23.3386 18.0526C23.8061 18.2625 24.213 18.5544 24.5594 18.928C24.9059 19.3011 25.1817 19.7348 25.3865 20.229C25.5743 20.6821 25.6742 21.1664 25.6904 21.6806V27.7707H28.164V21.6875H28.1646C28.164 21.6825 28.164 21.6781 28.164 21.6738Z" fill="#E5E5E5"/>
</svg>
