<svg width="29" height="28" viewBox="0 0 29 28" fill="none" xmlns="http://www.w3.org/2000/svg">
<path d="M15.1655 6.30253C15.1655 5.43052 15.3381 4.61158 15.6827 3.84444C16.0273 3.07792 16.4979 2.41065 17.0933 1.84326C17.6887 1.27586 18.3885 0.827062 19.1931 0.496237C19.9977 0.165412 20.8595 0 21.779 0C22.688 0 23.5423 0.165412 24.3413 0.496237C25.1404 0.827062 25.8382 1.27586 26.4337 1.84326C27.0291 2.41065 27.4997 3.07792 27.8443 3.84444C28.1888 4.61158 28.3614 5.43052 28.3614 6.30253C28.3614 7.17453 28.1888 7.99348 27.8443 8.76062C27.4997 9.52714 27.0291 10.1944 26.4337 10.7618C25.8382 11.3292 25.141 11.778 24.3413 12.1088C23.5423 12.4396 22.688 12.6051 21.779 12.6051C20.8595 12.6051 19.9977 12.4396 19.1931 12.1088C18.3885 11.778 17.6887 11.3292 17.0933 10.7618C16.4979 10.1944 16.0279 9.52776 15.6827 8.76062C15.3381 7.99348 15.1655 7.17391 15.1655 6.30253ZM17.7198 6.30253C17.7198 6.8281 17.8241 7.32122 18.0333 7.78375C18.2419 8.24628 18.5319 8.65014 18.9031 8.99719C19.2738 9.34362 19.7047 9.61952 20.1958 9.82426C20.6869 10.029 21.2146 10.1314 21.779 10.1314C22.3328 10.1314 22.855 10.029 23.3461 9.82426C23.8372 9.61952 24.2656 9.34362 24.6313 8.99719C24.997 8.65076 25.2869 8.24628 25.5011 7.78375C25.7153 7.32184 25.8227 6.8281 25.8227 6.30253C25.8227 5.78819 25.7153 5.29695 25.5011 4.82942C25.2869 4.3619 24.997 3.95492 24.6313 3.60849C24.2656 3.26206 23.8372 2.98616 23.3461 2.78143C22.855 2.57669 22.3328 2.47432 21.779 2.47432C21.2146 2.47432 20.6869 2.57669 20.1958 2.78143C19.7047 2.98616 19.2738 3.26206 18.9031 3.60849C18.5319 3.95492 18.2419 4.36252 18.0333 4.82942C17.8241 5.29632 17.7198 5.78756 17.7198 6.30253Z" fill="black"/>
<path d="M0 21.4681C0 20.5961 0.172601 19.7772 0.517183 19.01C0.861764 18.2435 1.33238 17.5762 1.92779 17.0088C2.52321 16.4414 3.22292 15.9927 4.02757 15.6618C4.83221 15.331 5.69398 15.1656 6.61348 15.1656C7.52243 15.1656 8.37674 15.331 9.1758 15.6618C9.97486 15.9927 10.6727 16.4414 11.2681 17.0088C11.8635 17.5762 12.3342 18.2435 12.6787 19.01C13.0233 19.7772 13.1959 20.5961 13.1959 21.4681C13.1959 22.3401 13.0233 23.1591 12.6787 23.9262C12.3342 24.6927 11.8635 25.36 11.2681 25.9274C10.6727 26.4948 9.97548 26.9436 9.1758 27.2744C8.37674 27.6052 7.52243 27.7706 6.61348 27.7706C5.69398 27.7706 4.83221 27.6052 4.02757 27.2744C3.22292 26.9436 2.52321 26.4948 1.92779 25.9274C1.33238 25.36 0.862385 24.6933 0.517183 23.9262C0.172601 23.1591 0 22.3395 0 21.4681ZM2.55425 21.4681C2.55425 21.9937 2.65855 22.4868 2.86779 22.9493C3.0764 23.4119 3.36634 23.8157 3.73762 24.1628C4.10828 24.5092 4.53916 24.7851 5.03027 24.9898C5.52138 25.1946 6.04911 25.2969 6.61348 25.2969C7.1673 25.2969 7.68944 25.1946 8.18055 24.9898C8.67166 24.7851 9.10006 24.5092 9.46575 24.1628C9.83144 23.8164 10.1214 23.4119 10.3356 22.9493C10.5498 22.4874 10.6572 21.9937 10.6572 21.4681C10.6572 20.9538 10.5498 20.4625 10.3356 19.995C10.1214 19.5275 9.83144 19.1205 9.46575 18.7741C9.10006 18.4276 8.67166 18.1518 8.18055 17.947C7.68944 17.7423 7.1673 17.6399 6.61348 17.6399C6.04911 17.6399 5.52138 17.7423 5.03027 17.947C4.53916 18.1518 4.10828 18.4276 3.73762 18.7741C3.36634 19.1205 3.0764 19.5281 2.86779 19.995C2.65855 20.4619 2.55425 20.9532 2.55425 21.4681Z" fill="#38D430"/>
<path d="M4.09685 3.60519C4.46408 3.25878 4.89097 2.98289 5.37752 2.77817C5.82348 2.59029 6.3002 2.49043 6.80644 2.4742L12.8013 2.4742V0.000624166L6.8132 0.000624166V0C6.8089 0 6.80459 0.000624166 6.79967 0.000624166L6.79659 0.000624166C5.9422 0.0174767 5.13763 0.180384 4.38411 0.493092C3.58692 0.8239 2.89369 1.27268 2.30379 1.84004C1.7139 2.40741 1.24764 3.07465 0.906251 3.84112C0.564862 4.60823 0.39386 5.42713 0.39386 6.29909C0.39386 7.17105 0.564862 7.98996 0.906251 8.75706C1.24764 9.52354 1.7139 10.1908 2.30379 10.7581C2.89369 11.3255 3.58692 11.7743 4.38411 12.1051C4.99554 12.3591 5.64079 12.5127 6.31926 12.5713C6.34571 12.5738 6.37401 12.5757 6.40169 12.5782C6.45028 12.582 6.49888 12.5857 6.54809 12.5882C6.8661 12.6057 7.23148 12.6051 7.5335 12.6051H12.802V6.30284H10.2246V10.1315L6.79905 10.1259C6.29404 10.1096 5.82287 10.0079 5.37814 9.82064C4.89158 9.61592 4.46469 9.34004 4.09747 8.99362C3.72963 8.64721 3.44237 8.24275 3.23569 7.78024C3.0284 7.31836 2.92506 6.82464 2.92506 6.29909C2.92506 5.78478 3.0284 5.29356 3.23569 4.82606C3.44237 4.35856 3.72963 3.9516 4.09685 3.60519Z" fill="black"/>
<path d="M28.1638 21.6737V21.6706C28.1469 20.802 27.984 19.984 27.6713 19.2192C27.3405 18.4093 26.8917 17.7051 26.3243 17.1058C25.757 16.5066 25.0897 16.0335 24.3233 15.6861C23.5562 15.3393 22.7366 15.1656 21.8647 15.1656C20.9927 15.1656 20.1738 15.3393 19.4073 15.6861C18.913 15.9098 18.4611 16.1866 18.0504 16.5147V15.1656H15.5593V27.7706H18.0498H18.0535V25.1524H18.0498V21.47C18.0835 21.0326 18.1808 20.6208 18.3437 20.229C18.5485 19.7347 18.8243 19.301 19.1708 18.928C19.5172 18.5543 19.9216 18.2625 20.3841 18.0525C20.846 17.8419 21.3397 17.737 21.8653 17.737C22.3796 17.737 22.8708 17.8419 23.3383 18.0525C23.8058 18.2625 24.2128 18.5543 24.5592 18.928C24.9056 19.301 25.1815 19.7347 25.3862 20.229C25.5741 20.682 25.674 21.1663 25.6902 21.6806V27.7706H28.1638V21.6874H28.1644C28.1638 21.6825 28.1638 21.6781 28.1638 21.6737Z" fill="#38D430"/>
</svg>
